<mxfile host="app.diagrams.net" modified="2024-01-18T20:02:13.434Z" agent="Mozilla/5.0 (Windows NT 10.0; Win64; x64) AppleWebKit/537.36 (KHTML, like Gecko) Chrome/120.0.0.0 Safari/537.36" etag="0V-pAMKpwQXXGfpn7lsn" version="22.1.21" type="device">
  <diagram name="Страница — 1" id="As0cUHAOSmdw8VcwJt-g">
    <mxGraphModel dx="1120" dy="506" grid="1" gridSize="10" guides="1" tooltips="1" connect="1" arrows="1" fold="1" page="1" pageScale="1" pageWidth="827" pageHeight="1169" math="0" shadow="0">
      <root>
        <mxCell id="0" />
        <mxCell id="1" parent="0" />
        <mxCell id="YWi4fuZkzTH2JXwTGR0b-1" value="&lt;&lt;Abstract&gt;&gt;&#xa;Pet" style="swimlane;fontStyle=3;align=center;verticalAlign=top;childLayout=stackLayout;horizontal=1;startSize=50;horizontalStack=0;resizeParent=1;resizeParentMax=0;resizeLast=0;collapsible=1;marginBottom=0;fontSize=16;" vertex="1" parent="1">
          <mxGeometry x="520" y="858" width="170" height="58" as="geometry" />
        </mxCell>
        <mxCell id="YWi4fuZkzTH2JXwTGR0b-2" value="" style="line;strokeWidth=1;fillColor=none;align=left;verticalAlign=middle;spacingTop=-1;spacingLeft=3;spacingRight=3;rotatable=0;labelPosition=right;points=[];portConstraint=eastwest;strokeColor=inherit;fontSize=16;" vertex="1" parent="YWi4fuZkzTH2JXwTGR0b-1">
          <mxGeometry y="50" width="170" height="8" as="geometry" />
        </mxCell>
        <mxCell id="YWi4fuZkzTH2JXwTGR0b-3" value="&lt;&lt;Abstract&gt;&gt;&#xa;Pack_animal" style="swimlane;fontStyle=3;align=center;verticalAlign=top;childLayout=stackLayout;horizontal=1;startSize=50;horizontalStack=0;resizeParent=1;resizeParentMax=0;resizeLast=0;collapsible=1;marginBottom=0;fontSize=16;" vertex="1" parent="1">
          <mxGeometry x="1130" y="858" width="170" height="58" as="geometry" />
        </mxCell>
        <mxCell id="YWi4fuZkzTH2JXwTGR0b-4" value="" style="line;strokeWidth=1;fillColor=none;align=left;verticalAlign=middle;spacingTop=-1;spacingLeft=3;spacingRight=3;rotatable=0;labelPosition=right;points=[];portConstraint=eastwest;strokeColor=inherit;fontSize=16;" vertex="1" parent="YWi4fuZkzTH2JXwTGR0b-3">
          <mxGeometry y="50" width="170" height="8" as="geometry" />
        </mxCell>
        <mxCell id="YWi4fuZkzTH2JXwTGR0b-5" value="Cat" style="swimlane;fontStyle=1;align=center;verticalAlign=top;childLayout=stackLayout;horizontal=1;startSize=26;horizontalStack=0;resizeParent=1;resizeParentMax=0;resizeLast=0;collapsible=1;marginBottom=0;fontSize=16;" vertex="1" parent="1">
          <mxGeometry x="525" y="1028" width="160" height="34" as="geometry" />
        </mxCell>
        <mxCell id="YWi4fuZkzTH2JXwTGR0b-6" value="" style="line;strokeWidth=1;fillColor=none;align=left;verticalAlign=middle;spacingTop=-1;spacingLeft=3;spacingRight=3;rotatable=0;labelPosition=right;points=[];portConstraint=eastwest;strokeColor=inherit;fontSize=16;" vertex="1" parent="YWi4fuZkzTH2JXwTGR0b-5">
          <mxGeometry y="26" width="160" height="8" as="geometry" />
        </mxCell>
        <mxCell id="YWi4fuZkzTH2JXwTGR0b-7" value="Dog" style="swimlane;fontStyle=1;align=center;verticalAlign=top;childLayout=stackLayout;horizontal=1;startSize=26;horizontalStack=0;resizeParent=1;resizeParentMax=0;resizeLast=0;collapsible=1;marginBottom=0;fontSize=16;" vertex="1" parent="1">
          <mxGeometry x="710" y="1028" width="160" height="34" as="geometry" />
        </mxCell>
        <mxCell id="YWi4fuZkzTH2JXwTGR0b-8" value="" style="line;strokeWidth=1;fillColor=none;align=left;verticalAlign=middle;spacingTop=-1;spacingLeft=3;spacingRight=3;rotatable=0;labelPosition=right;points=[];portConstraint=eastwest;strokeColor=inherit;fontSize=16;" vertex="1" parent="YWi4fuZkzTH2JXwTGR0b-7">
          <mxGeometry y="26" width="160" height="8" as="geometry" />
        </mxCell>
        <mxCell id="YWi4fuZkzTH2JXwTGR0b-9" value="Hamster" style="swimlane;fontStyle=1;align=center;verticalAlign=top;childLayout=stackLayout;horizontal=1;startSize=26;horizontalStack=0;resizeParent=1;resizeParentMax=0;resizeLast=0;collapsible=1;marginBottom=0;fontSize=16;" vertex="1" parent="1">
          <mxGeometry x="340" y="1028" width="160" height="34" as="geometry" />
        </mxCell>
        <mxCell id="YWi4fuZkzTH2JXwTGR0b-10" value="" style="line;strokeWidth=1;fillColor=none;align=left;verticalAlign=middle;spacingTop=-1;spacingLeft=3;spacingRight=3;rotatable=0;labelPosition=right;points=[];portConstraint=eastwest;strokeColor=inherit;fontSize=16;" vertex="1" parent="YWi4fuZkzTH2JXwTGR0b-9">
          <mxGeometry y="26" width="160" height="8" as="geometry" />
        </mxCell>
        <mxCell id="YWi4fuZkzTH2JXwTGR0b-11" value="Extends" style="endArrow=block;endSize=16;endFill=0;html=1;rounded=0;fontSize=12;sourcePerimeterSpacing=8;targetPerimeterSpacing=8;exitX=0.5;exitY=0;exitDx=0;exitDy=0;entryX=0.75;entryY=1;entryDx=0;entryDy=0;edgeStyle=orthogonalEdgeStyle;" edge="1" parent="1" source="YWi4fuZkzTH2JXwTGR0b-7" target="YWi4fuZkzTH2JXwTGR0b-1">
          <mxGeometry width="160" relative="1" as="geometry">
            <mxPoint x="700" y="968" as="sourcePoint" />
            <mxPoint x="604.4899999999998" y="908.5400000000004" as="targetPoint" />
            <Array as="points">
              <mxPoint x="790" y="978" />
              <mxPoint x="648" y="978" />
            </Array>
          </mxGeometry>
        </mxCell>
        <mxCell id="YWi4fuZkzTH2JXwTGR0b-12" value="Extends" style="endArrow=block;endSize=16;endFill=0;html=1;rounded=0;fontSize=12;sourcePerimeterSpacing=8;targetPerimeterSpacing=8;exitX=0.5;exitY=0;exitDx=0;exitDy=0;entryX=0.25;entryY=1;entryDx=0;entryDy=0;edgeStyle=orthogonalEdgeStyle;" edge="1" parent="1" source="YWi4fuZkzTH2JXwTGR0b-9" target="YWi4fuZkzTH2JXwTGR0b-1">
          <mxGeometry width="160" relative="1" as="geometry">
            <mxPoint x="510" y="1058" as="sourcePoint" />
            <mxPoint x="600" y="848" as="targetPoint" />
            <Array as="points">
              <mxPoint x="420" y="978" />
              <mxPoint x="562" y="978" />
            </Array>
          </mxGeometry>
        </mxCell>
        <mxCell id="YWi4fuZkzTH2JXwTGR0b-13" value="Horse" style="swimlane;fontStyle=1;align=center;verticalAlign=top;childLayout=stackLayout;horizontal=1;startSize=26;horizontalStack=0;resizeParent=1;resizeParentMax=0;resizeLast=0;collapsible=1;marginBottom=0;fontSize=16;" vertex="1" parent="1">
          <mxGeometry x="950" y="1028" width="160" height="34" as="geometry" />
        </mxCell>
        <mxCell id="YWi4fuZkzTH2JXwTGR0b-14" value="" style="line;strokeWidth=1;fillColor=none;align=left;verticalAlign=middle;spacingTop=-1;spacingLeft=3;spacingRight=3;rotatable=0;labelPosition=right;points=[];portConstraint=eastwest;strokeColor=inherit;fontSize=16;" vertex="1" parent="YWi4fuZkzTH2JXwTGR0b-13">
          <mxGeometry y="26" width="160" height="8" as="geometry" />
        </mxCell>
        <mxCell id="YWi4fuZkzTH2JXwTGR0b-15" value="Camel" style="swimlane;fontStyle=1;align=center;verticalAlign=top;childLayout=stackLayout;horizontal=1;startSize=26;horizontalStack=0;resizeParent=1;resizeParentMax=0;resizeLast=0;collapsible=1;marginBottom=0;fontSize=16;" vertex="1" parent="1">
          <mxGeometry x="1135" y="1028" width="160" height="34" as="geometry" />
        </mxCell>
        <mxCell id="YWi4fuZkzTH2JXwTGR0b-16" value="" style="line;strokeWidth=1;fillColor=none;align=left;verticalAlign=middle;spacingTop=-1;spacingLeft=3;spacingRight=3;rotatable=0;labelPosition=right;points=[];portConstraint=eastwest;strokeColor=inherit;fontSize=16;" vertex="1" parent="YWi4fuZkzTH2JXwTGR0b-15">
          <mxGeometry y="26" width="160" height="8" as="geometry" />
        </mxCell>
        <mxCell id="YWi4fuZkzTH2JXwTGR0b-17" value="Donkey" style="swimlane;fontStyle=1;align=center;verticalAlign=top;childLayout=stackLayout;horizontal=1;startSize=26;horizontalStack=0;resizeParent=1;resizeParentMax=0;resizeLast=0;collapsible=1;marginBottom=0;fontSize=16;" vertex="1" parent="1">
          <mxGeometry x="1310" y="1028" width="160" height="34" as="geometry" />
        </mxCell>
        <mxCell id="YWi4fuZkzTH2JXwTGR0b-18" value="" style="line;strokeWidth=1;fillColor=none;align=left;verticalAlign=middle;spacingTop=-1;spacingLeft=3;spacingRight=3;rotatable=0;labelPosition=right;points=[];portConstraint=eastwest;strokeColor=inherit;fontSize=16;" vertex="1" parent="YWi4fuZkzTH2JXwTGR0b-17">
          <mxGeometry y="26" width="160" height="8" as="geometry" />
        </mxCell>
        <mxCell id="YWi4fuZkzTH2JXwTGR0b-19" value="Extends" style="endArrow=block;endSize=16;endFill=0;html=1;rounded=0;fontSize=12;sourcePerimeterSpacing=8;targetPerimeterSpacing=8;exitX=0.5;exitY=0;exitDx=0;exitDy=0;entryX=0.25;entryY=1;entryDx=0;entryDy=0;" edge="1" parent="1" source="YWi4fuZkzTH2JXwTGR0b-13" target="YWi4fuZkzTH2JXwTGR0b-3">
          <mxGeometry width="160" relative="1" as="geometry">
            <mxPoint x="1080" y="968" as="sourcePoint" />
            <mxPoint x="1175.0499999999997" y="852.1800000000003" as="targetPoint" />
            <Array as="points">
              <mxPoint x="1030" y="978" />
              <mxPoint x="1173" y="978" />
            </Array>
          </mxGeometry>
        </mxCell>
        <mxCell id="YWi4fuZkzTH2JXwTGR0b-20" value="Extends" style="endArrow=block;endSize=16;endFill=0;html=1;rounded=0;fontSize=12;sourcePerimeterSpacing=8;targetPerimeterSpacing=8;exitX=0.5;exitY=0;exitDx=0;exitDy=0;entryX=0.5;entryY=1;entryDx=0;entryDy=0;" edge="1" parent="1" source="YWi4fuZkzTH2JXwTGR0b-15" target="YWi4fuZkzTH2JXwTGR0b-3">
          <mxGeometry width="160" relative="1" as="geometry">
            <mxPoint x="1040" y="1028" as="sourcePoint" />
            <mxPoint x="1215.3399999999997" y="853.0440000000003" as="targetPoint" />
          </mxGeometry>
        </mxCell>
        <mxCell id="YWi4fuZkzTH2JXwTGR0b-21" value="Extends" style="endArrow=block;endSize=16;endFill=0;html=1;rounded=0;fontSize=12;sourcePerimeterSpacing=8;targetPerimeterSpacing=8;exitX=0.5;exitY=0;exitDx=0;exitDy=0;entryX=0.75;entryY=1;entryDx=0;entryDy=0;" edge="1" parent="1" source="YWi4fuZkzTH2JXwTGR0b-17" target="YWi4fuZkzTH2JXwTGR0b-3">
          <mxGeometry width="160" relative="1" as="geometry">
            <mxPoint x="1220" y="1028" as="sourcePoint" />
            <mxPoint x="1255" y="818" as="targetPoint" />
            <Array as="points">
              <mxPoint x="1390" y="978" />
              <mxPoint x="1258" y="978" />
            </Array>
          </mxGeometry>
        </mxCell>
        <mxCell id="YWi4fuZkzTH2JXwTGR0b-22" value="&lt;&lt;Abstract&gt;&gt;&#xa;Animal" style="swimlane;fontStyle=3;align=center;verticalAlign=top;childLayout=stackLayout;horizontal=1;startSize=50;horizontalStack=0;resizeParent=1;resizeParentMax=0;resizeLast=0;collapsible=1;marginBottom=0;fontSize=16;" vertex="1" parent="1">
          <mxGeometry x="750" y="418" width="290" height="300" as="geometry" />
        </mxCell>
        <mxCell id="YWi4fuZkzTH2JXwTGR0b-23" value="- id: int&#xa;- number: int&#xa;- dateOfBirth: datetime&#xa;- name: String&#xa;- commands: PetCommands" style="text;strokeColor=none;fillColor=none;align=left;verticalAlign=top;spacingLeft=4;spacingRight=4;overflow=hidden;rotatable=0;points=[[0,0.5],[1,0.5]];portConstraint=eastwest;fontSize=16;fontStyle=2" vertex="1" parent="YWi4fuZkzTH2JXwTGR0b-22">
          <mxGeometry y="50" width="290" height="90" as="geometry" />
        </mxCell>
        <mxCell id="YWi4fuZkzTH2JXwTGR0b-24" value="" style="line;strokeWidth=1;fillColor=none;align=left;verticalAlign=middle;spacingTop=-1;spacingLeft=3;spacingRight=3;rotatable=0;labelPosition=right;points=[];portConstraint=eastwest;strokeColor=inherit;fontSize=16;" vertex="1" parent="YWi4fuZkzTH2JXwTGR0b-22">
          <mxGeometry y="140" width="290" height="8" as="geometry" />
        </mxCell>
        <mxCell id="YWi4fuZkzTH2JXwTGR0b-25" value="+ animal(int, datetime)&#xa;+ setDateOfBirth(datetime): void&#xa;+ getDateOfBirth(): datetime&#xa;+ setName(String): void&#xa;+ getName(): String&#xa;+ addCommand(enum): void" style="text;strokeColor=none;fillColor=none;align=left;verticalAlign=top;spacingLeft=4;spacingRight=4;overflow=hidden;rotatable=0;points=[[0,0.5],[1,0.5]];portConstraint=eastwest;fontSize=16;fontStyle=2" vertex="1" parent="YWi4fuZkzTH2JXwTGR0b-22">
          <mxGeometry y="148" width="290" height="152" as="geometry" />
        </mxCell>
        <mxCell id="YWi4fuZkzTH2JXwTGR0b-26" value="Extends" style="endArrow=block;endSize=16;endFill=0;html=1;rounded=0;exitX=0.5;exitY=0;exitDx=0;exitDy=0;entryX=0.252;entryY=1.017;entryDx=0;entryDy=0;entryPerimeter=0;edgeStyle=orthogonalEdgeStyle;" edge="1" parent="1" source="YWi4fuZkzTH2JXwTGR0b-1" target="YWi4fuZkzTH2JXwTGR0b-25">
          <mxGeometry width="160" relative="1" as="geometry">
            <mxPoint x="830" y="808" as="sourcePoint" />
            <mxPoint x="990" y="808" as="targetPoint" />
            <Array as="points">
              <mxPoint x="605" y="808" />
              <mxPoint x="823" y="808" />
            </Array>
          </mxGeometry>
        </mxCell>
        <mxCell id="YWi4fuZkzTH2JXwTGR0b-27" value="Extends" style="endArrow=block;endSize=16;endFill=0;html=1;rounded=0;exitX=0.5;exitY=0;exitDx=0;exitDy=0;entryX=0.745;entryY=1.005;entryDx=0;entryDy=0;entryPerimeter=0;edgeStyle=orthogonalEdgeStyle;" edge="1" parent="1" source="YWi4fuZkzTH2JXwTGR0b-3" target="YWi4fuZkzTH2JXwTGR0b-25">
          <mxGeometry width="160" relative="1" as="geometry">
            <mxPoint x="595" y="698" as="sourcePoint" />
            <mxPoint x="904.1300000000001" y="589.9680000000001" as="targetPoint" />
            <Array as="points">
              <mxPoint x="1215" y="808" />
              <mxPoint x="966" y="808" />
            </Array>
          </mxGeometry>
        </mxCell>
        <mxCell id="YWi4fuZkzTH2JXwTGR0b-28" value="Extends" style="endArrow=block;endSize=16;endFill=0;html=1;rounded=0;fontSize=12;sourcePerimeterSpacing=8;targetPerimeterSpacing=8;exitX=0.5;exitY=0;exitDx=0;exitDy=0;edgeStyle=orthogonalEdgeStyle;entryX=0.5;entryY=1;entryDx=0;entryDy=0;" edge="1" parent="1" source="YWi4fuZkzTH2JXwTGR0b-5" target="YWi4fuZkzTH2JXwTGR0b-1">
          <mxGeometry width="160" relative="1" as="geometry">
            <mxPoint x="840" y="1038" as="sourcePoint" />
            <mxPoint x="605" y="848" as="targetPoint" />
            <Array as="points">
              <mxPoint x="605" y="948" />
              <mxPoint x="605" y="948" />
            </Array>
          </mxGeometry>
        </mxCell>
        <mxCell id="YWi4fuZkzTH2JXwTGR0b-29" value="PetCommands" style="swimlane;fontStyle=1;align=center;verticalAlign=top;childLayout=stackLayout;horizontal=1;startSize=30;horizontalStack=0;resizeParent=1;resizeParentMax=0;resizeLast=0;collapsible=1;marginBottom=0;fontSize=16;" vertex="1" parent="1">
          <mxGeometry x="350" y="528" width="290" height="230" as="geometry" />
        </mxCell>
        <mxCell id="YWi4fuZkzTH2JXwTGR0b-30" value="- commands: ArrayList" style="text;strokeColor=none;fillColor=none;align=left;verticalAlign=top;spacingLeft=4;spacingRight=4;overflow=hidden;rotatable=0;points=[[0,0.5],[1,0.5]];portConstraint=eastwest;fontSize=16;fontStyle=2" vertex="1" parent="YWi4fuZkzTH2JXwTGR0b-29">
          <mxGeometry y="30" width="290" height="40" as="geometry" />
        </mxCell>
        <mxCell id="YWi4fuZkzTH2JXwTGR0b-31" value="" style="line;strokeWidth=1;fillColor=none;align=left;verticalAlign=middle;spacingTop=-1;spacingLeft=3;spacingRight=3;rotatable=0;labelPosition=right;points=[];portConstraint=eastwest;strokeColor=inherit;fontSize=16;" vertex="1" parent="YWi4fuZkzTH2JXwTGR0b-29">
          <mxGeometry y="70" width="290" height="8" as="geometry" />
        </mxCell>
        <mxCell id="YWi4fuZkzTH2JXwTGR0b-32" value="+ PetCommands(): void&#xa;+ addCommand(Command): void" style="text;strokeColor=none;fillColor=none;align=left;verticalAlign=top;spacingLeft=4;spacingRight=4;overflow=hidden;rotatable=0;points=[[0,0.5],[1,0.5]];portConstraint=eastwest;fontSize=16;fontStyle=2" vertex="1" parent="YWi4fuZkzTH2JXwTGR0b-29">
          <mxGeometry y="78" width="290" height="152" as="geometry" />
        </mxCell>
        <mxCell id="YWi4fuZkzTH2JXwTGR0b-33" value="&lt;&lt;enumeration&gt;&gt;&#xa;Command" style="swimlane;fontStyle=1;align=center;verticalAlign=top;childLayout=stackLayout;horizontal=1;startSize=50;horizontalStack=0;resizeParent=1;resizeParentMax=0;resizeLast=0;collapsible=1;marginBottom=0;fontSize=16;" vertex="1" parent="1">
          <mxGeometry x="350" y="190" width="290" height="228" as="geometry" />
        </mxCell>
        <mxCell id="YWi4fuZkzTH2JXwTGR0b-34" value="GO&#xa;STOP&#xa;RUN_AWAY&#xa;COME_UP&#xa;LIE&#xa;JUMP&#xa;TRUP&#xa;STAND__UP" style="text;strokeColor=none;fillColor=none;align=left;verticalAlign=top;spacingLeft=4;spacingRight=4;overflow=hidden;rotatable=0;points=[[0,0.5],[1,0.5]];portConstraint=eastwest;fontSize=16;fontStyle=2" vertex="1" parent="YWi4fuZkzTH2JXwTGR0b-33">
          <mxGeometry y="50" width="290" height="170" as="geometry" />
        </mxCell>
        <mxCell id="YWi4fuZkzTH2JXwTGR0b-35" value="" style="line;strokeWidth=1;fillColor=none;align=left;verticalAlign=middle;spacingTop=-1;spacingLeft=3;spacingRight=3;rotatable=0;labelPosition=right;points=[];portConstraint=eastwest;strokeColor=inherit;fontSize=16;" vertex="1" parent="YWi4fuZkzTH2JXwTGR0b-33">
          <mxGeometry y="220" width="290" height="8" as="geometry" />
        </mxCell>
        <mxCell id="YWi4fuZkzTH2JXwTGR0b-36" value="1..*" style="endArrow=open;html=1;endSize=12;startArrow=diamondThin;startSize=14;startFill=0;edgeStyle=orthogonalEdgeStyle;align=left;verticalAlign=bottom;exitX=0.5;exitY=0;exitDx=0;exitDy=0;entryX=0.5;entryY=1;entryDx=0;entryDy=0;" edge="1" parent="1" source="YWi4fuZkzTH2JXwTGR0b-29" target="YWi4fuZkzTH2JXwTGR0b-33">
          <mxGeometry x="-1" y="-15" relative="1" as="geometry">
            <mxPoint x="880" y="408" as="sourcePoint" />
            <mxPoint x="1040" y="408" as="targetPoint" />
            <mxPoint as="offset" />
          </mxGeometry>
        </mxCell>
        <mxCell id="YWi4fuZkzTH2JXwTGR0b-37" value="1" style="endArrow=open;html=1;endSize=12;startArrow=diamondThin;startSize=14;startFill=0;edgeStyle=orthogonalEdgeStyle;align=left;verticalAlign=bottom;exitX=0;exitY=0.5;exitDx=0;exitDy=0;entryX=1;entryY=0.25;entryDx=0;entryDy=0;" edge="1" parent="1" source="YWi4fuZkzTH2JXwTGR0b-23" target="YWi4fuZkzTH2JXwTGR0b-29">
          <mxGeometry x="-0.1021" y="25" relative="1" as="geometry">
            <mxPoint x="680" y="438" as="sourcePoint" />
            <mxPoint x="840" y="438" as="targetPoint" />
            <mxPoint as="offset" />
          </mxGeometry>
        </mxCell>
      </root>
    </mxGraphModel>
  </diagram>
</mxfile>
